<svg width="25" height="31" viewBox="0 0 25 31" fill="none" xmlns="http://www.w3.org/2000/svg">
<path d="M0.190058 29.4135C-0.133863 29.8608 -0.0338285 30.486 0.41349 30.8099C0.860809 31.1339 1.48602 31.0338 1.80994 30.5865L0.190058 29.4135ZM22.9874 0.842009C22.9002 0.296663 22.3874 -0.0746949 21.842 0.012559L12.955 1.43447C12.4097 1.52173 12.0383 2.03456 12.1256 2.57991C12.2128 3.12525 12.7257 3.49661 13.271 3.40936L21.1705 2.14543L22.4345 10.045C22.5217 10.5903 23.0346 10.9617 23.5799 10.8744C24.1253 10.7872 24.4966 10.2743 24.4094 9.72898L22.9874 0.842009ZM1 30L1.80994 30.5865L22.8099 1.58651L22 1L21.1901 0.41349L0.190058 29.4135L1 30Z" fill="black"/>
</svg>
